<?xml version="1.0" standalone="no"?>
<!DOCTYPE svg PUBLIC "-//W3C//DTD SVG 20010904//EN"
 "http://www.w3.org/TR/2001/REC-SVG-20010904/DTD/svg10.dtd">
<svg version="1.0" xmlns="http://www.w3.org/2000/svg"
 width="128.000000pt" height="134.000000pt" viewBox="0 0 128.000000 134.000000"
 preserveAspectRatio="xMidYMid meet">
<metadata>
Created by potrace 1.11, written by Peter Selinger 2001-2013
</metadata>
<g transform="translate(0.000000,134.000000) scale(0.100000,-0.100000)"
fill="#000000" stroke="none">
<path d="M120 1088 c1 -186 4 -252 19 -328 11 -52 18 -96 17 -97 -1 -2 -37 -8
-80 -14 -65 -10 -76 -14 -71 -28 4 -9 24 -62 45 -119 52 -136 95 -214 151
-277 45 -48 47 -53 42 -98 -12 -102 53 -124 191 -67 87 36 156 91 155 123 -1
12 2 78 6 147 15 254 -42 516 -147 685 -48 76 -133 171 -186 206 -26 17 -68
47 -94 66 l-48 35 0 -234z"/>
<path d="M1080 1259 c-104 -78 -199 -169 -242 -232 -110 -163 -168 -381 -168
-636 0 -181 11 -244 47 -276 48 -43 169 -98 227 -103 72 -6 89 11 84 88 -3 56
-2 58 44 105 26 26 64 82 86 124 47 91 118 278 109 287 -3 3 -40 11 -81 17
-42 6 -76 14 -76 18 0 4 7 41 17 81 12 56 17 132 18 326 1 138 2 252 1 251 0
0 -30 -23 -66 -50z"/>
</g>
</svg>
